<svg width="679" height="679" viewBox="0 0 679 679" fill="currentColor" xmlns="http://www.w3.org/2000/svg">
<path  d="M522.507 389.414C522.507 389.194 522.772 389.056 522.772 388.837L522.334 194.202C522.334 192.706 521.953 191.279 521.872 189.8C521.953 187.502 522.553 185.345 522.553 183.016C522.553 82.096 440.463 0 339.531 0C238.609 0 156.518 82.096 156.518 183.016C156.518 184.737 156.991 186.297 157.014 187.998C156.784 190.353 156.311 192.585 156.311 194.94L156.386 219.971C156.386 220.179 156.132 220.335 156.132 220.568L156.928 584.178C156.928 591.259 162.677 596.933 169.688 596.933L239.381 596.829L194.425 658.663C191.64 662.558 191.26 667.664 193.431 671.974C195.601 676.281 200.015 679 204.833 679H474.232C474.497 679 474.693 679 474.832 679C481.878 679 487.575 673.28 487.575 666.231C487.575 662.117 485.635 658.446 482.587 656.169L439.177 596.471L510.083 596.345C513.494 596.296 516.761 594.946 519.096 592.542C521.44 590.175 522.864 586.882 522.864 583.544L522.507 389.414ZM182.432 551.446L182.109 390.12C182.109 389.901 182.388 389.716 182.388 389.52L182.109 274.733C209.752 321.943 257.418 355.379 313.748 363.42L182.432 551.446ZM338.513 260.559C338.923 260.559 339.032 260.219 339.442 260.15C339.848 260.219 340.001 260.559 340.39 260.559C347.457 260.531 353.134 254.822 353.134 247.799L353.111 194.531C353.024 175.191 360.451 156.924 374.065 143.186C387.592 129.511 405.629 121.932 424.727 121.897C424.773 121.897 424.853 121.897 424.9 121.897C444.089 121.897 462.08 129.373 475.587 142.996C488.469 155.929 495.388 173.081 496.21 191.279C491.784 274.234 423.57 340.473 339.551 340.473C255.175 340.473 186.707 273.68 182.844 190.284C185.243 152.556 215.656 122.307 253.661 122.243C253.725 122.243 253.771 122.243 253.834 122.243C293.356 122.243 325.583 154.658 325.658 194.583L325.744 247.799C325.747 254.848 331.493 260.559 338.513 260.559ZM496.717 275.275L497.378 556.861L362.417 363.682C419.817 356.451 468.619 322.978 496.717 275.275ZM339.577 25.55C401.492 25.55 454.789 61.8596 480.465 114.029C464.242 102.627 445.11 96.3299 424.949 96.3299C424.856 96.3299 424.81 96.3299 424.729 96.3299C398.687 96.3933 374.287 106.648 355.855 125.259C348.994 132.198 343.694 140.211 339.278 148.632C322.815 117.875 290.914 96.6903 253.906 96.6903C253.837 96.6903 253.797 96.6903 253.727 96.6903C233.382 96.7076 214.463 103.189 198.802 114.026C224.372 61.8366 277.654 25.55 339.577 25.55ZM449.256 653.453H229.965L271.156 596.826L407.835 596.558L449.256 653.453ZM289.708 571.224L339.574 502.664L389.244 571.005L289.708 571.224ZM349.916 473.421C345.052 466.813 334.094 466.813 329.23 473.421L258.092 571.293L199.695 571.409L338.018 373.343L475.933 570.832L420.739 570.959L349.916 473.421Z"/>
<path d="M424.853 210.535C438.35 210.535 449.293 199.593 449.293 186.095C449.293 172.597 438.35 161.655 424.853 161.655C411.355 161.655 400.413 172.597 400.413 186.095C400.413 199.593 411.355 210.535 424.853 210.535Z"/>
<path d="M254.292 210.535C267.79 210.535 278.732 199.593 278.732 186.095C278.732 172.597 267.79 161.655 254.292 161.655C240.794 161.655 229.852 172.597 229.852 186.095C229.852 199.593 240.794 210.535 254.292 210.535Z"/>
</svg>
